<svg xmlns="http://www.w3.org/2000/svg" viewBox="0 0 375 375" width="500" height="500" preserveAspectRatio="xMidYMid meet">
<!--Background-->
  <rect x="40" y="40" width="295" height="295" fill="#2962ff"/>
<!--Text / Logo-->
  <g fill="#313640" transform="translate(104 221)">
<!--First word-->
    <path d="M7-70h33c7.7 0 14.5 1.4 20.4 4.3 5.9 2.9 10.5 7 13.8 12.2 3.3 5.3 4.9 11.4 4.9 18.5s-1.6 13.2-4.9 18.5c-3.3 5.3-7.9 9.4-13.8 12.2C54.5-1.4 47.7 0 40 0H7Zm32 54c6 0 10.8-1.7 14.4-5.1 3.6-3.4 5.4-8.1 5.4-14.1s-1.8-10.7-5.4-14.1C49.8-53 45-54.7 39-54.7H27v38.7Z"/>
<!--Second word-->
    <path d="M126-54.3H104.5V-70h63v15.7H146V0h-20Z"/>
  </g>
</svg>
